<?xml version="1.0" encoding="utf-8"?>
<!-- Generator: Adobe Illustrator 19.1.0, SVG Export Plug-In . SVG Version: 6.00 Build 0)  -->
<svg version="1.1" id="Layer_1" xmlns="http://www.w3.org/2000/svg" xmlns:xlink="http://www.w3.org/1999/xlink" x="0px" y="0px"
	 viewBox="6 3.6 28.2 24.4" style="enable-background:new 6 3.6 28.2 24.4;" xml:space="preserve">
<style type="text/css">
	.st0{fill:#333333;}
</style>
<g>
	<path class="st0" d="M28.6,11.2l-4.9-5.3c-0.1-0.1-0.3-0.2-0.5-0.2h-8.1c-1.1,0-2,0.9-2,2v16.4c0,1.1,0.9,2,2,2h11.6
		c1.1,0,2-0.9,2-2V11.7C28.8,11.5,28.7,11.3,28.6,11.2z M26.9,11.2h-3.4V7.6L26.9,11.2z M27.5,24.1c0,0.4-0.3,0.7-0.7,0.7H15.1
		c-0.4,0-0.7-0.3-0.7-0.7V7.7c0-0.4,0.3-0.7,0.7-0.7h7.8v4.6c0,0.2,0.1,0.3,0.3,0.3h4.2l0,0V24.1z"/>
	<path class="st0" d="M24.8,20.7h-7.7c-0.1,0-0.2,0.1-0.2,0.2c0,0.1,0.1,0.2,0.2,0.2h7.7c0.1,0,0.2-0.1,0.2-0.2
		C25,20.8,24.9,20.7,24.8,20.7z"/>
	<path class="st0" d="M24.8,17.3h-7.7c-0.1,0-0.2,0.1-0.2,0.2c0,0.1,0.1,0.2,0.2,0.2h7.7c0.1,0,0.2-0.1,0.2-0.2
		C25,17.4,24.9,17.3,24.8,17.3z"/>
	<path class="st0" d="M24.8,13.9h-7.7c-0.1,0-0.2,0.1-0.2,0.2c0,0.1,0.1,0.2,0.2,0.2h7.7c0.1,0,0.2-0.1,0.2-0.2
		C25,14,24.9,13.9,24.8,13.9z"/>
</g>
</svg>
