<?xml version="1.0" encoding="utf-8"?>
<!-- Generator: Adobe Illustrator 19.1.0, SVG Export Plug-In . SVG Version: 6.00 Build 0)  -->
<svg version="1.1" id="Layer_1" xmlns="http://www.w3.org/2000/svg" xmlns:xlink="http://www.w3.org/1999/xlink" x="0px" y="0px"
	 viewBox="-273 276.6 28.2 24.4" style="enable-background:new -273 276.6 28.2 24.4;" xml:space="preserve">
<style type="text/css">
	.st0{fill:#333333;}
</style>
<g>
	<polygon class="st0" points="-253.2,284.9 -252.3,284.5 -251.4,283.4 -252.5,282.3 -253.7,283.1 -254,284 -256.8,286.8 
		-255.9,287.6 	"/>
	<path class="st0" d="M-251.5,292.4l-5-4.4l-0.2-0.2l-1.4-1.3c0.2-0.9,0.5-3.1-0.8-4.4c-0.8-0.8-2-1.3-3.1-1.3c-0.3,0-0.6,0-0.9,0.1
		c-0.1,0-0.1,0.1-0.2,0.2c0,0.1,0,0.2,0.1,0.2l1.9,1.9l0.4,1.8l-1.6,1.5l-1.8-0.4l-1.9-1.9c-0.1-0.1-0.1-0.1-0.2-0.1
		c-0.1,0-0.1,0.1-0.1,0.2c-0.3,1.5,0.2,3,1.2,4c0.6,0.6,1.6,1,2.8,1h0c0.5,0,1.1-0.1,1.6-0.2l5.8,6.6c0.5,0.5,1.1,0.7,1.8,0.7
		c0.7,0,1.3-0.3,1.8-0.7C-250.6,295-250.6,293.4-251.5,292.4z M-252.9,294.6c-0.2,0.2-0.6,0.2-0.9,0l0,0c-0.2-0.2-0.2-0.6,0-0.9
		c0.2-0.2,0.6-0.2,0.9,0h0C-252.6,294-252.6,294.4-252.9,294.6z"/>
	<path class="st0" d="M-261.1,290.5c-0.2-0.2-0.6-0.2-0.8,0l-3.7,3.7c-0.2,0.2-0.2,0.6,0,0.8l1.4,1.4c0.2,0.2,0.6,0.2,0.8,0l3.6-3.6
		c0.2-0.2,0.2-0.6,0-0.8L-261.1,290.5z"/>
</g>
</svg>
