<?xml version="1.0" encoding="utf-8"?>
<!-- Generator: Adobe Illustrator 19.1.0, SVG Export Plug-In . SVG Version: 6.00 Build 0)  -->
<svg version="1.1" id="Layer_1" xmlns="http://www.w3.org/2000/svg" xmlns:xlink="http://www.w3.org/1999/xlink" x="0px" y="0px"
	 viewBox="-273 276.6 28.2 24.4" style="enable-background:new -273 276.6 28.2 24.4;" xml:space="preserve">
<style type="text/css">
	.st0{fill:#FFFFFF;}
</style>
<g>
	<path class="st0" d="M-248.6,281.4h-20.9c-0.8,0-1.5,0.7-1.5,1.5v13.3c0,0.8,0.7,1.5,1.5,1.5h20.9c0.8,0,1.5-0.7,1.5-1.5v-13.3
		C-247.1,282.1-247.8,281.4-248.6,281.4z M-249.7,285.1l-9,7c-0.1,0-0.3,0.1-0.5,0.1c-0.1,0-0.3,0-0.5-0.1l-8.8-7
		c-0.3-0.2-0.3-0.7-0.1-1c0.2-0.3,0.7-0.3,1-0.1l8.4,6.6l8.6-6.6c0.3-0.2,0.8-0.2,1,0.1C-249.3,284.4-249.3,284.9-249.7,285.1z"/>
</g>
</svg>
