<?xml version="1.0" encoding="utf-8"?>
<!-- Generator: Adobe Illustrator 19.1.0, SVG Export Plug-In . SVG Version: 6.00 Build 0)  -->
<svg version="1.1" id="Layer_1" xmlns="http://www.w3.org/2000/svg" xmlns:xlink="http://www.w3.org/1999/xlink" x="0px" y="0px"
	 viewBox="6 -5.4 28.2 24.4" style="enable-background:new 6 -5.4 28.2 24.4;" xml:space="preserve">
<style type="text/css">
	.st0{fill:#FFFFFF;}
</style>
<path class="st0" d="M10,6.1V8c0,0.6,0.5,1.1,1.1,1.1h3.5c0.6,0,1.1-0.5,1.1-1.1V6.1c0-0.6-0.5-1.1-1.1-1.1h-3.5
	C10.5,5,10,5.5,10,6.1z"/>
<path class="st0" d="M10,12.5v1.9c0,0.6,0.5,1.1,1.1,1.1h3.5c0.6,0,1.1-0.5,1.1-1.1v-1.9c0-0.6-0.5-1.1-1.1-1.1h-3.5
	C10.5,11.4,10,11.9,10,12.5z"/>
<path class="st0" d="M10-0.3v1.9c0,0.6,0.5,1.1,1.1,1.1h3.5c0.6,0,1.1-0.5,1.1-1.1v-1.9c0-0.6-0.5-1.1-1.1-1.1h-3.5
	C10.5-1.5,10-1,10-0.3z"/>
<path class="st0" d="M17.5,6.1V8c0,0.6,0.5,1.1,1.1,1.1h3.5c0.6,0,1.1-0.5,1.1-1.1V6.1c0-0.6-0.5-1.1-1.1-1.1h-3.5
	C18,5,17.5,5.5,17.5,6.1z"/>
<path class="st0" d="M17.5,12.5v1.9c0,0.6,0.5,1.1,1.1,1.1h3.5c0.6,0,1.1-0.5,1.1-1.1v-1.9c0-0.6-0.5-1.1-1.1-1.1h-3.5
	C18,11.4,17.5,11.9,17.5,12.5z"/>
<path class="st0" d="M17.5-0.3v1.9c0,0.6,0.5,1.1,1.1,1.1h3.5c0.6,0,1.1-0.5,1.1-1.1v-1.9c0-0.6-0.5-1.1-1.1-1.1h-3.5
	C18-1.5,17.5-1,17.5-0.3z"/>
<path class="st0" d="M25,6.1V8c0,0.6,0.5,1.1,1.1,1.1h3.5c0.6,0,1.1-0.5,1.1-1.1V6.1c0-0.6-0.5-1.1-1.1-1.1h-3.5
	C25.5,5,25,5.5,25,6.1z"/>
<path class="st0" d="M25,12.5v1.9c0,0.6,0.5,1.1,1.1,1.1h3.5c0.6,0,1.1-0.5,1.1-1.1v-1.9c0-0.6-0.5-1.1-1.1-1.1h-3.5
	C25.5,11.4,25,11.9,25,12.5z"/>
<path class="st0" d="M25-0.3v1.9c0,0.6,0.5,1.1,1.1,1.1h3.5c0.6,0,1.1-0.5,1.1-1.1v-1.9c0-0.6-0.5-1.1-1.1-1.1h-3.5
	C25.5-1.5,25-1,25-0.3z"/>
</svg>
