<?xml version="1.0" encoding="utf-8"?>
<!-- Generator: Adobe Illustrator 19.1.0, SVG Export Plug-In . SVG Version: 6.00 Build 0)  -->
<svg version="1.1" id="Layer_1" xmlns="http://www.w3.org/2000/svg" xmlns:xlink="http://www.w3.org/1999/xlink" x="0px" y="0px"
	 viewBox="6 -5.4 28.2 24.4" style="enable-background:new 6 -5.4 28.2 24.4;" xml:space="preserve">
<style type="text/css">
	.st0{fill:#FFFFFF;}
</style>
<path class="st0" d="M31.9,10.2l-3.6-5C28.1,5.1,28,5,27.8,5c-0.2,0-0.3,0.1-0.4,0.2l-3.6,5c-0.1,0.2-0.1,0.4,0,0.6
	c0.1,0.2,0.3,0.3,0.5,0.3h2c-0.4,0.7-1,1.4-1.7,2c-1.6,1.3-3.6,2-5.7,1.8s-3.9-1.1-5.3-2.7c-1.3-1.6-2-3.6-1.8-5.7s1.1-3.9,2.7-5.3
	s3.6-2,5.7-1.8c2,0.2,3.9,1.1,5.2,2.7c0.5,0.5,1.3,0.6,1.8,0.1s0.6-1.3,0.1-1.8c-1.8-2-4.2-3.3-6.9-3.5S15-2.5,12.9-0.7
	s-3.4,4.3-3.6,7c-0.2,2.7,0.6,5.4,2.4,7.5s4.3,3.4,7,3.6c0.3,0,0.6,0,0.9,0c2.4,0,4.8-0.8,6.6-2.4c1.3-1.1,2.3-2.4,2.9-3.9h2.4
	c0.2,0,0.4-0.1,0.5-0.3C32,10.6,32,10.4,31.9,10.2z"/>
</svg>
