<?xml version="1.0" encoding="utf-8"?>
<!-- Generator: Adobe Illustrator 19.1.0, SVG Export Plug-In . SVG Version: 6.00 Build 0)  -->
<svg version="1.1" id="Layer_1" xmlns="http://www.w3.org/2000/svg" xmlns:xlink="http://www.w3.org/1999/xlink" x="0px" y="0px"
	 viewBox="6 -5.4 28.2 24.4" style="enable-background:new 6 -5.4 28.2 24.4;" xml:space="preserve">
<style type="text/css">
	.st0{fill:#FFFFFF;}
</style>
<path class="st0" d="M25.4,9.3c0,0,0.2,0,0.4,0c0.4,0.1,0.5,0.4,0.5,0.6c0,0.1-0.1,0.3-0.2,0.4l-5.3,6.8c0,0,0,0-0.1,0.1
	c-0.2,0.2-0.5,0.3-0.6,0.3c-0.4,0-0.6-0.2-0.6-0.3c-2-2.5-5.2-6.7-5.2-6.7c-0.2-0.2-0.4-0.4-0.4-0.7l0,0l0,0c0-0.3,0.1-0.4,0.3-0.6
	c0.1-0.1,0.1-0.1,0.3-0.1L25.4,9.3z"/>
<path class="st0" d="M14.8,5c0,0-0.2,0-0.4,0C14.1,5,14,4.6,14,4.4c0-0.1,0.1-0.3,0.2-0.4l5.3-6.8c0,0,0,0,0.1-0.1
	c0.2-0.2,0.5-0.3,0.6-0.3c0.4,0,0.6,0.2,0.6,0.3c2,2.5,5.2,6.7,5.2,6.7c0.2,0.2,0.4,0.4,0.4,0.7l0,0l0,0c0,0.3-0.1,0.4-0.3,0.6
	c-0.1,0.1-0.1,0.1-0.3,0.1L14.8,5z"/>
</svg>
