<?xml version="1.0" encoding="utf-8"?>
<!-- Generator: Adobe Illustrator 19.1.0, SVG Export Plug-In . SVG Version: 6.00 Build 0)  -->
<svg version="1.1" id="Layer_1" xmlns="http://www.w3.org/2000/svg" xmlns:xlink="http://www.w3.org/1999/xlink" x="0px" y="0px"
	 viewBox="-273 276.6 28.2 24.4" style="enable-background:new -273 276.6 28.2 24.4;" xml:space="preserve">
<style type="text/css">
	.st0{fill:#FFFFFF;}
</style>
<g>
	<g>
		<path class="st0" d="M-267.3,285.6v11.8c0,0.3,0.3,0.6,0.6,0.6h0.6c0.3,0,0.6-0.3,0.6-0.6v-11.8H-267.3z"/>
		<path class="st0" d="M-265.6,278v-0.8c0-0.3-0.3-0.6-0.6-0.6h-0.6c-0.3,0-0.6,0.3-0.6,0.6v0.8H-265.6z"/>
		<path class="st0" d="M-264.5,279.1h-4c-0.2,0-0.4,0.2-0.4,0.4v4.6c0,0.2,0.2,0.4,0.4,0.4h4c0.2,0,0.4-0.2,0.4-0.4v-4.6
			C-264,279.3-264.2,279.1-264.5,279.1z"/>
	</g>
	<g>
		<path class="st0" d="M-259.2,294.7v2.7c0,0.3,0.3,0.6,0.6,0.6h0.6c0.3,0,0.6-0.3,0.6-0.6v-2.7
			C-257.4,294.7-259.2,294.7-259.2,294.7z"/>
		<path class="st0" d="M-257.4,287.1v-9.9c0-0.3-0.3-0.6-0.6-0.6h-0.6c-0.3,0-0.6,0.3-0.6,0.6v9.9
			C-259.2,287.1-257.4,287.1-257.4,287.1z"/>
		<path class="st0" d="M-256.3,288.2h-4c-0.2,0-0.4,0.2-0.4,0.4v4.6c0,0.2,0.2,0.4,0.4,0.4h4c0.2,0,0.4-0.2,0.4-0.4v-4.7
			C-255.9,288.4-256.1,288.2-256.3,288.2z"/>
	</g>
	<g>
		<path class="st0" d="M-249.3,281.2v-4c0-0.3-0.3-0.6-0.6-0.6h-0.6c-0.3,0-0.6,0.3-0.6,0.6v4C-251.1,281.2-249.3,281.2-249.3,281.2
			z"/>
		<path class="st0" d="M-251,288.9v8.6c0,0.3,0.3,0.6,0.6,0.6h0.6c0.3,0,0.6-0.3,0.6-0.6v-8.6H-251z"/>
		<path class="st0" d="M-248.2,282.3h-4c-0.2,0-0.4,0.2-0.4,0.4v4.6c0,0.2,0.2,0.4,0.4,0.4h4c0.2,0,0.4-0.2,0.4-0.4v-4.6
			C-247.8,282.5-248,282.3-248.2,282.3z"/>
	</g>
</g>
</svg>
