<svg xmlns="http://www.w3.org/2000/svg" viewBox="0 0 33 33"><title>MaterialIcon</title><g id="Layer_2" data-name="Layer 2"><g id="COPYALL"><rect x="0.5" y="0.5" width="32" height="32" style="fill:none;stroke:#808285;stroke-miterlimit:10;stroke-width:1.00002395934886px"/><circle cx="3.81" cy="3.81" r="1.66" style="fill:none;stroke:#808285;stroke-miterlimit:10;stroke-width:1.00002395934886px"/><circle cx="8.78" cy="3.81" r="1.66" style="fill:none;stroke:#808285;stroke-miterlimit:10;stroke-width:1.00002395934886px"/><circle cx="13.74" cy="3.81" r="1.66" style="fill:none;stroke:#808285;stroke-miterlimit:10;stroke-width:1.00002395934886px"/><rect x="0.5" y="0.5" width="32" height="6.62" style="fill:none;stroke:#808285;stroke-miterlimit:10;stroke-width:1.00002395934886px"/><rect x="2.71" y="12.09" width="7.72" height="11.03" style="fill:none;stroke:#808285;stroke-miterlimit:10;stroke-width:1.00002395934886px"/><rect x="2.71" y="12.09" width="7.72" height="2.76" style="fill:none;stroke:#808285;stroke-miterlimit:10;stroke-width:1.00002395934886px"/><rect x="22.57" y="12.09" width="7.72" height="11.03" style="fill:none;stroke:#808285;stroke-miterlimit:10;stroke-width:1.00002395934886px"/><rect x="22.57" y="12.09" width="7.72" height="2.76" style="fill:none;stroke:#808285;stroke-miterlimit:10;stroke-width:1.00002395934886px"/><rect x="12.64" y="9.88" width="7.72" height="15.45" style="fill:none;stroke:#808285;stroke-miterlimit:10;stroke-width:1.00002395934886px"/><rect x="12.64" y="9.88" width="7.72" height="2.76" style="fill:none;stroke:#808285;stroke-miterlimit:10;stroke-width:1.00002395934886px"/><rect x="4.36" y="19.26" width="4.41" height="2.21" style="fill:none;stroke:#808285;stroke-miterlimit:10;stroke-width:1.00002395934886px"/><rect x="14.29" y="21.47" width="4.41" height="2.21" style="fill:none;stroke:#808285;stroke-miterlimit:10;stroke-width:1.00002395934886px"/><rect x="24.22" y="19.26" width="4.41" height="2.21" style="fill:none;stroke:#808285;stroke-miterlimit:10;stroke-width:1.00002395934886px"/><line x1="2.71" y1="27.53" x2="10.43" y2="27.53" style="fill:none;stroke:#808285;stroke-miterlimit:10;stroke-width:1.00002395934886px"/><line x1="2.71" y1="29.19" x2="10.43" y2="29.19" style="fill:none;stroke:#808285;stroke-miterlimit:10;stroke-width:1.00002395934886px"/><line x1="12.64" y1="27.53" x2="20.36" y2="27.53" style="fill:none;stroke:#808285;stroke-miterlimit:10;stroke-width:1.00002395934886px"/><line x1="12.64" y1="29.19" x2="20.36" y2="29.19" style="fill:none;stroke:#808285;stroke-miterlimit:10;stroke-width:1.00002395934886px"/><line x1="22.57" y1="27.53" x2="30.29" y2="27.53" style="fill:none;stroke:#808285;stroke-miterlimit:10;stroke-width:1.00002395934886px"/><line x1="22.57" y1="29.19" x2="30.29" y2="29.19" style="fill:none;stroke:#808285;stroke-miterlimit:10;stroke-width:1.00002395934886px"/><line x1="13.19" y1="12.64" x2="15.95" y2="9.88" style="fill:none;stroke:#808285;stroke-miterlimit:10;stroke-width:1.00002395934886px"/><line x1="15.95" y1="12.64" x2="18.71" y2="9.88" style="fill:none;stroke:#808285;stroke-miterlimit:10;stroke-width:1.00002395934886px"/><line x1="18.71" y1="12.64" x2="20.36" y2="10.98" style="fill:none;stroke:#808285;stroke-miterlimit:10;stroke-width:1.00002395934886px"/></g></g></svg>