<svg xmlns="http://www.w3.org/2000/svg" viewBox="0 0 24.36 33.68"><title>QualityIcon</title><g id="Layer_2" data-name="Layer 2"><g id="COPYALL"><polyline points="10.33 25.68 7.78 32.68 5.17 29.49 1.12 30.26 3.8 22.89" style="fill:none;stroke:#808285;stroke-miterlimit:10;stroke-width:1.00002395934886px"/><polyline points="14.07 25.68 16.62 32.68 19.23 29.49 23.28 30.26 20.6 22.89" style="fill:none;stroke:#808285;stroke-miterlimit:10;stroke-width:1.00002395934886px"/><polygon points="21.9 12.18 23.68 9.1 20.6 7.32 20.6 3.76 17.04 3.76 15.26 0.68 12.18 2.46 9.1 0.68 7.32 3.76 3.76 3.76 3.76 7.32 0.68 9.1 2.46 12.18 0.68 15.26 3.76 17.04 3.76 20.6 7.32 20.6 9.1 23.68 12.18 21.9 15.26 23.68 17.04 20.6 20.6 20.6 20.6 17.04 23.68 15.26 21.9 12.18" style="fill:none;stroke:#808285;stroke-miterlimit:10;stroke-width:1.00002395934886px"/><circle cx="12.18" cy="12.18" r="6.5" style="fill:none;stroke:#808285;stroke-miterlimit:10;stroke-width:1.00002395934886px"/></g></g></svg>